<?xml version="1.0" standalone="no"?>
<!DOCTYPE svg PUBLIC "-//W3C//DTD SVG 20010904//EN"
 "http://www.w3.org/TR/2001/REC-SVG-20010904/DTD/svg10.dtd">
<svg version="1.0" xmlns="http://www.w3.org/2000/svg"
 width="1250.000000pt" height="1250.000000pt" viewBox="0 0 1250.000000 1250.000000"
 preserveAspectRatio="xMidYMid meet">
<metadata>
Created by potrace 1.14, written by Peter Selinger 2001-2017
</metadata>
<g transform="translate(0.000000,1250.000000) scale(0.100000,-0.100000)"
fill="#000000" stroke="none">
<path d="M5885 12100 c-3 -5 -3 -10 2 -10 4 0 1 -5 -7 -10 -8 -5 -25 -7 -37
-3 -18 4 -23 1 -23 -13 0 -16 -2 -17 -10 -4 -7 11 -12 12 -18 3 -4 -6 -28 -12
-52 -12 -110 -1 -128 -4 -123 -18 4 -9 0 -11 -11 -7 -9 3 -23 1 -31 -6 -12
-10 -18 -10 -30 0 -13 11 -14 10 -9 -3 4 -13 1 -15 -17 -12 -13 3 -27 -1 -31
-8 -6 -9 -10 -9 -17 1 -9 15 -17 15 -43 1 -12 -6 -18 -6 -18 1 0 5 -5 10 -11
10 -5 0 -8 -3 -6 -7 3 -5 -1 -13 -8 -20 -11 -10 -15 -10 -19 0 -4 9 -7 9 -11
1 -3 -7 -15 -9 -27 -6 -16 4 -19 2 -13 -9 5 -8 4 -11 0 -6 -5 4 -18 1 -31 -7
-12 -8 -25 -12 -28 -9 -12 13 -46 13 -46 0 0 -7 -3 -8 -8 -2 -9 12 -52 15 -52
3 0 -4 -7 -8 -15 -8 -8 0 -15 -8 -15 -18 0 -15 -7 -18 -30 -17 -16 1 -30 -3
-30 -8 0 -5 -7 -4 -15 3 -13 11 -14 10 -9 -5 6 -14 4 -16 -6 -10 -10 6 -12 4
-7 -9 4 -9 3 -14 -2 -11 -5 3 -12 1 -16 -5 -4 -6 -22 -9 -41 -7 -19 3 -34 0
-34 -4 0 -5 -6 -8 -12 -6 -7 1 -12 -3 -11 -9 1 -7 -5 -11 -15 -10 -9 0 -16 -4
-15 -11 2 -7 -11 -10 -37 -9 -24 2 -37 -1 -33 -7 4 -6 0 -8 -9 -5 -8 4 -21 -2
-28 -13 -11 -15 -17 -16 -29 -6 -12 9 -13 9 -7 0 4 -8 1 -13 -9 -13 -10 0 -13
-5 -9 -12 5 -7 3 -8 -7 -2 -19 12 -40 14 -34 4 3 -5 1 -11 -5 -15 -5 -3 -10
-1 -10 6 0 7 -6 5 -13 -6 -9 -11 -19 -15 -27 -10 -9 5 -11 4 -6 -3 7 -12 4
-13 -31 -16 -10 -1 -24 -5 -32 -10 -10 -6 -12 -5 -7 2 4 7 2 12 -3 12 -6 0
-11 -5 -11 -11 0 -5 -5 -7 -10 -4 -6 4 -9 1 -8 -7 2 -7 -5 -12 -14 -12 -10 1
-15 -2 -12 -7 5 -8 -9 -13 -28 -10 -5 0 -7 -5 -5 -12 1 -6 -3 -11 -10 -10 -8
2 -10 -4 -6 -14 4 -10 2 -14 -4 -10 -6 4 -14 -1 -17 -10 -6 -14 -9 -15 -15 -4
-6 9 -10 3 -14 -17 -5 -26 -10 -30 -32 -27 -21 2 -26 -1 -22 -16 3 -12 0 -16
-9 -12 -8 3 -14 -1 -14 -11 0 -9 -6 -15 -12 -13 -7 1 -12 -6 -12 -15 1 -11 -5
-15 -19 -12 -11 2 -17 1 -14 -3 3 -3 0 -12 -8 -19 -17 -17 -29 -18 -19 -1 4 6
-4 1 -18 -13 -13 -14 -22 -29 -20 -34 3 -5 -2 -7 -11 -3 -10 4 -16 2 -14 -6 1
-7 -4 -11 -11 -9 -7 1 -17 -10 -22 -24 -9 -23 -12 -24 -27 -13 -12 10 -15 10
-9 1 4 -7 1 -15 -9 -18 -13 -6 -14 -8 -3 -15 10 -7 9 -9 -4 -10 -32 -3 -36 -4
-45 -13 -5 -5 -2 -6 7 -1 8 4 2 -4 -14 -19 -16 -14 -33 -26 -39 -26 -5 0 -7
-7 -4 -15 4 -8 1 -17 -5 -21 -7 -4 -8 -3 -4 4 4 7 2 12 -3 12 -6 0 -11 -7 -11
-15 0 -8 -6 -14 -12 -13 -8 2 -14 -9 -16 -25 -3 -25 -6 -27 -20 -15 -9 7 -13
8 -9 2 4 -7 0 -15 -9 -18 -9 -4 -14 -13 -10 -21 5 -14 -6 -20 -28 -16 -5 1 -6
-5 -3 -14 4 -9 1 -15 -9 -15 -11 0 -14 -5 -10 -17 4 -10 4 -15 1 -11 -8 8 -66
-52 -60 -62 7 -12 -23 -33 -36 -24 -7 4 -9 3 -5 -4 3 -6 2 -13 -4 -17 -6 -4
-7 -11 -4 -17 5 -8 1 -9 -11 -4 -15 5 -16 4 -5 -9 11 -13 10 -14 -2 -10 -18 7
-42 -20 -32 -36 4 -7 3 -9 -2 -6 -21 12 -39 -13 -43 -57 -1 -5 -9 -2 -18 5
-11 10 -14 10 -9 2 4 -8 2 -13 -8 -13 -8 0 -13 -8 -12 -17 3 -19 -15 -43 -26
-36 -12 7 -9 -12 3 -24 8 -8 6 -11 -7 -10 -10 1 -19 -4 -20 -10 -1 -7 -3 -15
-4 -18 -2 -5 -6 -18 -9 -31 0 -4 -7 -1 -15 5 -11 9 -16 9 -22 0 -4 -8 -3 -9 4
-5 7 4 12 3 12 -2 0 -6 -7 -12 -15 -16 -8 -3 -15 -12 -15 -21 0 -8 -7 -15 -16
-15 -8 0 -12 -5 -9 -10 4 -6 -4 -19 -16 -29 -21 -17 -22 -21 -9 -37 8 -11 11
-16 6 -12 -5 4 -18 2 -29 -3 -16 -9 -17 -13 -6 -20 8 -5 9 -9 3 -9 -6 0 -9
-15 -8 -35 2 -26 0 -34 -9 -28 -9 5 -9 3 1 -9 10 -12 10 -17 -1 -27 -8 -6 -18
-7 -23 -3 -4 4 -3 0 4 -10 10 -12 10 -18 1 -24 -8 -5 -10 -3 -5 7 4 8 1 5 -8
-5 -8 -10 -13 -23 -10 -27 9 -16 -44 -9 -60 7 -9 8 -16 11 -16 5 0 -6 -7 -11
-15 -11 -8 0 -15 -5 -15 -11 0 -8 -5 -8 -15 1 -12 10 -16 8 -25 -14 -6 -17
-17 -26 -30 -26 -14 0 -19 -4 -14 -12 5 -9 2 -9 -9 1 -13 10 -17 10 -17 1 0
-9 -4 -10 -13 -2 -10 8 -16 6 -25 -9 -7 -11 -18 -17 -24 -13 -7 5 -9 2 -5 -9
4 -12 1 -15 -14 -12 -11 2 -22 -2 -26 -11 -3 -8 -12 -13 -20 -10 -9 4 -13 0
-11 -11 2 -10 -4 -18 -12 -19 -32 -3 -60 -17 -53 -27 4 -7 0 -8 -12 -3 -14 5
-16 4 -6 -8 9 -11 7 -13 -15 -13 -14 0 -31 -6 -37 -13 -9 -10 -9 -11 3 -6 9 5
8 2 -2 -7 -10 -8 -18 -20 -18 -28 -1 -11 -4 -10 -13 3 -12 15 -14 15 -27 -5
-8 -12 -15 -26 -15 -32 -1 -5 -6 -9 -13 -8 -7 2 -12 -2 -12 -8 0 -5 -4 -8 -9
-5 -5 4 -8 -5 -7 -19 2 -13 0 -22 -5 -20 -11 8 -40 -6 -33 -16 3 -5 1 -9 -5
-9 -6 0 -8 -7 -5 -15 4 -9 1 -15 -7 -15 -21 0 -48 -31 -42 -48 5 -11 2 -14 -9
-9 -11 4 -15 0 -14 -11 2 -9 -4 -22 -13 -29 -9 -6 -16 -20 -16 -30 0 -10 -6
-17 -12 -16 -7 2 -13 -3 -13 -11 0 -8 -7 -17 -15 -20 -13 -5 -14 -10 -4 -28
11 -20 10 -21 -3 -10 -13 10 -17 10 -22 -4 -3 -9 -3 -21 1 -27 5 -8 2 -8 -8 0
-13 10 -16 10 -17 0 -2 -30 -9 -48 -22 -60 -11 -9 -11 -8 0 8 14 18 14 19 -2
7 -15 -12 -34 -78 -31 -109 0 -7 -4 -11 -10 -10 -6 1 -12 -2 -12 -8 -2 -21
-17 -55 -24 -55 -4 0 -6 -13 -3 -30 3 -21 0 -30 -9 -30 -11 0 -11 -2 1 -10 13
-8 13 -10 -1 -10 -9 0 -16 -8 -15 -17 0 -10 -3 -18 -9 -18 -5 0 -9 4 -7 10 2
5 0 7 -4 2 -12 -11 -12 -47 -1 -47 6 0 2 -9 -8 -20 -10 -11 -24 -20 -31 -20
-7 0 -16 -5 -20 -12 -5 -7 -3 -8 6 -3 8 5 11 3 8 -6 -3 -8 -10 -13 -16 -12 -7
2 -9 -4 -5 -14 4 -11 3 -14 -5 -9 -11 6 -17 -5 -13 -26 0 -5 -6 -8 -14 -8 -13
0 -14 -4 -4 -22 11 -21 11 -22 -5 -9 -14 12 -16 12 -10 -3 5 -12 0 -16 -16
-16 -16 0 -20 -4 -16 -15 3 -9 -1 -18 -10 -22 -8 -3 -13 -11 -11 -17 3 -7 -1
-20 -9 -31 -8 -10 -14 -14 -14 -9 0 6 6 16 13 23 10 11 8 11 -10 0 -11 -7 -19
-19 -16 -26 3 -7 0 -13 -6 -13 -6 0 -11 -5 -11 -11 0 -5 5 -7 12 -3 7 4 8 3 4
-4 -4 -7 -16 -12 -28 -12 -14 0 -18 -5 -14 -15 3 -8 0 -15 -7 -15 -8 0 -6 -4
3 -10 13 -8 12 -10 -2 -10 -10 0 -17 -6 -15 -12 1 -7 -4 -12 -12 -10 -12 3
-12 0 -2 -12 11 -13 10 -17 -3 -22 -9 -3 -13 -10 -10 -15 3 -5 -1 -9 -8 -9 -8
0 -9 -3 -3 -8 17 -12 17 -35 0 -28 -9 3 -14 2 -10 -3 8 -15 -6 -42 -19 -34 -7
4 -7 1 1 -9 17 -20 4 -31 -16 -15 -14 10 -14 10 -4 -3 13 -17 -6 -87 -29 -101
-7 -5 -8 -9 -2 -9 6 0 11 -20 10 -49 0 -30 -4 -47 -9 -44 -6 4 -7 1 -1 -8 11
-18 15 -91 5 -85 -4 3 -8 -1 -8 -9 0 -8 3 -12 6 -11 3 2 6 -11 6 -29 0 -18 -3
-31 -7 -28 -5 2 -8 -1 -8 -6 0 -6 6 -11 13 -11 8 0 7 -4 -3 -10 -12 -8 -12
-10 -1 -10 11 0 11 -4 -2 -18 -14 -15 -15 -19 -2 -19 8 0 11 5 8 10 -4 6 -1 7
6 3 9 -6 9 -12 -3 -25 -13 -14 -13 -20 -3 -31 9 -10 9 -11 0 -6 -16 9 -17 -6
-1 -22 9 -9 9 -12 -3 -12 -11 0 -12 -2 0 -9 11 -7 11 -13 0 -32 -12 -23 -11
-23 6 -9 17 14 17 14 7 -7 -9 -17 -9 -25 1 -35 6 -7 13 -22 15 -33 l4 -20 -16
20 c-15 19 -16 19 -7 -5 5 -14 14 -24 21 -22 6 1 9 -2 5 -8 -3 -6 -11 -8 -16
-5 -5 4 -9 1 -9 -4 0 -6 5 -11 11 -11 6 0 9 -9 6 -20 -3 -10 0 -21 7 -24 8 -3
8 -5 0 -5 -8 -1 -9 -12 -4 -36 5 -21 4 -35 -2 -35 -5 0 -6 -5 -2 -11 3 -6 6
-33 5 -60 0 -27 4 -49 9 -49 6 0 10 -9 10 -21 0 -13 4 -18 13 -13 7 5 6 1 -3
-10 -13 -16 -12 -20 5 -32 10 -8 16 -14 12 -14 -4 0 -3 -10 4 -21 8 -15 8 -19
0 -15 -6 4 -11 3 -11 -3 0 -5 5 -13 10 -16 8 -5 7 -11 -1 -21 -9 -11 -9 -14 1
-14 7 0 10 -7 7 -15 -4 -8 -1 -17 5 -21 7 -5 8 -2 3 6 -5 9 -4 11 3 6 7 -4 12
-14 12 -22 0 -8 5 -14 10 -14 6 0 10 -9 10 -20 0 -11 4 -20 9 -20 5 0 11 -10
14 -21 4 -14 11 -20 21 -16 12 5 13 2 6 -18 -9 -25 -8 -27 23 -29 20 -2 38
-29 24 -38 -9 -6 -8 -8 2 -8 11 0 11 -3 0 -17 -13 -15 -12 -15 8 -5 18 10 21
9 18 -6 -1 -9 7 -28 19 -41 11 -13 14 -20 6 -16 -13 8 -13 7 -1 -9 9 -10 23
-15 34 -12 10 2 16 2 13 -1 -3 -3 -1 -14 5 -24 5 -11 6 -19 1 -19 -5 0 -6 -18
-2 -40 4 -22 5 -40 1 -40 -3 0 -6 -24 -6 -54 0 -30 3 -52 8 -49 4 2 7 -1 7 -6
0 -6 -5 -11 -11 -11 -5 0 -7 -4 -4 -10 3 -5 0 -10 -7 -10 -8 0 -9 -3 -2 -8 5
-4 10 -17 11 -29 2 -50 3 -54 16 -47 7 5 6 0 -3 -11 -9 -11 -10 -16 -2 -11 8
5 12 0 12 -13 0 -14 6 -21 20 -21 22 0 27 -15 9 -26 -8 -5 -6 -10 5 -16 9 -5
13 -15 10 -21 -4 -7 -4 -9 1 -5 4 4 17 -7 29 -25 38 -55 40 -61 26 -52 -9 5
-11 4 -6 -3 4 -7 15 -12 24 -12 13 0 13 -2 -4 -16 -10 -8 -14 -13 -9 -11 15 7
38 -20 24 -29 -7 -4 -3 -13 11 -26 16 -15 18 -23 10 -33 -8 -9 -8 -15 0 -20 5
-3 10 -19 10 -36 0 -16 5 -29 13 -29 8 0 7 -4 -3 -10 -10 -6 -11 -10 -3 -10 9
0 12 -18 11 -58 -1 -32 1 -63 6 -70 4 -6 3 -12 -1 -12 -12 0 -10 -53 2 -62 6
-5 4 -8 -5 -8 -13 0 -13 -1 0 -10 11 -7 11 -10 2 -10 -9 0 -10 -5 -3 -19 6
-10 7 -21 4 -25 -3 -3 -1 -6 4 -6 6 0 10 -8 9 -17 -2 -13 -11 -18 -35 -16 -17
1 -29 -2 -26 -7 3 -5 -4 -14 -15 -20 -11 -6 -19 -14 -19 -18 3 -18 -2 -33 -9
-28 -5 3 -9 -1 -9 -9 0 -8 5 -11 11 -8 6 4 5 -1 -3 -10 -7 -9 -11 -28 -9 -42
3 -14 2 -25 -2 -25 -9 0 -3 -56 6 -72 4 -7 2 -8 -4 -4 -7 4 -12 4 -12 -1 0 -4
-34 -7 -74 -6 -54 1 -78 -3 -87 -13 -6 -7 -16 -11 -21 -8 -6 4 -14 0 -19 -7
-7 -12 -9 -11 -9 1 0 13 -1 13 -10 0 -9 -13 -10 -13 -10 0 0 10 -7 7 -21 -10
-11 -14 -18 -19 -14 -12 6 11 3 11 -13 1 -11 -7 -18 -19 -15 -26 4 -9 -3 -16
-16 -20 -15 -4 -20 -11 -16 -21 5 -13 3 -13 -11 -1 -16 13 -16 12 -5 -10 8
-15 9 -21 2 -17 -6 4 -11 2 -11 -4 0 -6 -4 -8 -10 -5 -9 6 -15 -8 -11 -29 1
-5 -4 -6 -12 -3 -10 4 -13 -2 -11 -19 1 -17 -6 -29 -26 -40 -19 -12 -27 -24
-25 -39 2 -19 -2 -22 -22 -20 -19 2 -21 0 -12 -11 6 -8 7 -14 3 -14 -5 0 -10
-13 -10 -30 -1 -16 2 -28 6 -25 3 2 7 -2 7 -10 0 -8 -4 -12 -8 -10 -3 3 -9 -4
-12 -16 -5 -17 -3 -18 11 -7 13 11 14 11 7 -2 -5 -8 -10 -48 -11 -88 -2 -41
-5 -81 -8 -89 -3 -8 -2 -11 4 -8 5 3 14 -5 21 -17 12 -22 11 -22 -6 -8 -17 14
-17 14 -3 -15 8 -16 13 -36 10 -44 -2 -8 0 -11 5 -8 5 3 10 0 10 -8 0 -8 -4
-12 -9 -9 -4 3 -8 0 -8 -5 0 -6 5 -11 11 -11 8 0 7 -6 -2 -17 -12 -14 -12 -16
0 -8 11 6 13 4 8 -8 -3 -9 -2 -19 4 -22 5 -4 7 -11 4 -16 -4 -5 0 -9 7 -9 9 0
9 -3 -2 -10 -8 -5 -10 -10 -3 -10 12 0 12 -17 0 -37 -5 -8 -3 -13 3 -13 6 0 8
-5 5 -11 -10 -15 -13 -59 -4 -54 8 6 22 -12 25 -33 1 -6 -2 -10 -7 -6 -5 3 -6
10 -3 16 5 7 2 8 -5 4 -9 -6 -8 -12 4 -26 9 -10 14 -23 11 -29 -3 -5 0 -15 7
-23 16 -16 28 -68 16 -68 -5 0 -4 -11 1 -24 5 -13 6 -27 2 -31 -3 -3 0 -10 8
-15 9 -5 15 -25 16 -47 1 -45 12 -75 25 -67 13 7 7 -19 -6 -28 -6 -5 -5 -8 4
-8 7 0 11 -6 8 -15 -4 -8 -1 -17 5 -21 7 -4 8 -3 4 4 -4 7 -2 12 5 12 7 0 9
-10 7 -24 -4 -19 -1 -24 14 -21 10 2 16 0 13 -6 -4 -5 -3 -15 2 -22 13 -21 14
-50 1 -60 -10 -6 -9 -8 3 -4 9 3 22 1 30 -4 12 -7 12 -9 0 -9 -11 0 -10 -4 4
-13 13 -10 15 -16 6 -21 -9 -6 -7 -12 6 -23 10 -8 13 -12 7 -9 -6 3 -11 -1
-11 -9 0 -8 4 -12 9 -9 4 3 11 -2 14 -11 4 -10 10 -12 18 -6 8 7 12 2 11 -17
0 -15 -4 -30 -10 -34 -5 -4 -1 -8 10 -8 17 0 17 -2 5 -10 -13 -8 -12 -10 3
-10 10 0 25 -7 33 -15 11 -10 12 -15 3 -15 -7 0 -3 -8 8 -17 11 -10 18 -23 16
-30 -2 -6 1 -15 8 -19 8 -5 10 -3 4 7 -5 8 -4 10 0 6 9 -8 16 -29 18 -58 1
-11 10 -15 29 -14 23 2 26 0 18 -15 -11 -21 -4 -30 24 -31 21 0 21 -1 1 -8
-19 -8 -19 -8 3 -15 12 -4 22 -14 22 -21 0 -9 6 -12 17 -8 12 5 14 3 8 -7 -6
-10 -4 -12 8 -7 12 4 15 1 12 -14 -2 -11 0 -17 6 -14 5 4 9 1 9 -5 0 -6 5 -8
12 -4 8 5 9 2 4 -11 -6 -16 -4 -16 11 -4 9 8 14 9 10 3 -8 -13 27 -57 37 -47
3 3 6 1 6 -6 0 -17 28 -44 38 -37 5 3 22 -8 37 -24 15 -16 32 -27 37 -24 4 3
8 -2 8 -10 0 -8 5 -18 12 -22 7 -4 8 -3 4 4 -5 8 -2 10 8 6 9 -3 16 -12 16
-19 0 -8 8 -12 20 -10 11 2 20 -1 20 -6 0 -19 31 -41 58 -42 15 0 21 -2 15 -4
-7 -3 -13 -9 -13 -14 0 -4 8 -5 17 -2 13 5 15 3 9 -12 -4 -11 -4 -16 0 -13 3
4 21 0 38 -9 30 -16 31 -16 17 3 -8 10 -3 8 11 -6 16 -16 21 -27 14 -32 -7 -5
-7 -8 -1 -8 6 0 17 6 24 12 8 7 11 8 8 3 -3 -6 6 -15 19 -22 13 -6 22 -7 19
-3 -3 4 6 3 20 -3 14 -7 25 -16 25 -20 0 -5 -5 -5 -12 -1 -7 4 -8 3 -4 -5 4
-6 12 -9 17 -6 5 4 9 0 9 -7 0 -9 3 -9 11 2 8 12 10 12 8 -5 -3 -35 1 -45 15
-45 14 0 30 -29 21 -38 -3 -3 -5 1 -5 8 0 7 -2 11 -5 8 -8 -8 6 -39 14 -33 4
2 8 -22 9 -54 0 -42 8 -73 26 -107 17 -34 24 -60 21 -87 -2 -21 1 -37 7 -37 6
0 5 -7 -3 -17 -10 -11 -10 -14 -1 -9 7 4 12 2 12 -4 0 -6 5 -8 11 -4 8 4 8 0
0 -15 -10 -18 -9 -20 5 -14 12 4 15 3 10 -5 -4 -7 -2 -12 6 -12 9 0 9 -3 -2
-10 -11 -7 -11 -10 -2 -10 7 0 12 -8 10 -17 -1 -10 1 -24 5 -30 5 -8 3 -13 -3
-13 -7 0 0 -14 14 -31 14 -17 26 -39 26 -50 0 -14 4 -18 12 -13 10 6 10 4 2
-7 -14 -17 -10 -49 8 -60 10 -7 10 -9 -1 -9 -11 0 -10 -4 4 -13 10 -8 15 -19
11 -25 -3 -6 -1 -14 5 -18 8 -5 9 -3 4 7 -5 8 -4 11 1 6 5 -5 10 -22 10 -38 2
-47 3 -51 16 -43 8 5 9 2 5 -9 -3 -10 -2 -17 3 -17 6 0 10 -5 10 -11 0 -7 8
-18 18 -26 9 -8 11 -12 5 -8 -9 4 -13 -1 -13 -14 0 -12 5 -21 10 -21 6 0 10
-5 10 -11 0 -5 -5 -7 -11 -3 -8 4 -7 0 1 -15 6 -12 19 -20 28 -19 11 2 17 -4
18 -17 1 -11 2 -23 4 -27 1 -5 3 -12 4 -17 0 -6 11 -19 23 -30 12 -12 20 -27
17 -35 -3 -9 3 -17 15 -21 12 -3 21 -11 21 -16 0 -6 4 -8 9 -4 11 6 7 -27 -5
-48 -4 -6 -4 -9 1 -5 12 11 68 -51 61 -68 -3 -8 -1 -14 4 -14 6 0 10 -8 10
-17 0 -15 2 -16 10 -3 8 12 10 11 10 -7 0 -13 4 -23 9 -23 4 0 8 -12 7 -27 -1
-16 5 -29 12 -29 6 -1 20 -2 30 -3 15 -1 15 -3 2 -11 -11 -7 -11 -10 -2 -10 7
0 10 -5 7 -10 -3 -6 -1 -10 4 -10 6 0 11 -5 11 -11 0 -14 26 -40 33 -33 3 3 4
-6 3 -20 -2 -14 1 -23 5 -20 11 7 40 -21 32 -30 -4 -3 -1 -6 6 -6 8 0 11 -6 7
-16 -5 -12 -1 -14 16 -8 20 6 21 5 10 -9 -11 -12 -10 -15 5 -13 12 1 17 -5 15
-18 -3 -14 1 -17 14 -12 14 5 15 4 4 -9 -8 -10 -9 -15 -1 -15 6 0 11 -7 11
-16 0 -8 4 -12 10 -9 5 3 10 -3 10 -13 0 -22 25 -47 38 -38 5 3 8 -6 6 -19 -2
-23 10 -31 39 -26 5 1 6 -3 2 -9 -3 -5 -1 -10 4 -10 6 0 11 -10 12 -22 0 -13
3 -17 6 -10 4 9 10 7 22 -7 10 -12 22 -17 27 -13 4 4 3 0 -4 -9 -10 -14 -10
-18 4 -23 9 -3 19 -4 24 -1 4 3 6 -5 3 -17 -4 -19 -3 -20 6 -8 8 11 11 11 12
3 4 -34 6 -38 17 -36 6 2 9 -4 5 -13 -4 -11 0 -15 13 -12 18 3 20 -1 23 -38 0
-8 5 -12 11 -9 5 3 10 1 10 -5 0 -6 4 -8 10 -5 10 6 14 -7 11 -33 -1 -7 12
-17 28 -23 17 -6 29 -15 26 -19 -3 -5 -2 -15 1 -24 5 -12 10 -14 19 -6 8 7 15
3 23 -14 8 -19 8 -26 -1 -30 -11 -4 17 -10 36 -7 4 0 7 -4 7 -10 0 -5 6 -7 12
-3 8 5 8 1 -2 -12 -8 -10 -10 -16 -6 -12 5 4 15 0 23 -10 10 -11 12 -12 8 -2
-4 8 3 4 14 -9 12 -12 19 -27 16 -32 -3 -4 4 -6 15 -4 13 2 20 -1 20 -11 0 -9
5 -12 12 -8 8 5 9 2 5 -10 -5 -13 -3 -17 6 -13 8 3 21 -7 31 -25 10 -16 20
-27 24 -24 3 3 -3 16 -14 28 -17 21 -17 21 8 -1 15 -13 25 -29 21 -34 -4 -6 0
-8 10 -4 11 4 17 1 17 -8 0 -8 6 -15 14 -15 8 0 23 -11 34 -25 14 -17 22 -21
25 -13 3 8 6 6 6 -5 1 -12 5 -16 14 -11 8 5 8 2 -2 -9 -12 -15 -11 -17 12 -17
25 0 52 -22 40 -33 -3 -4 -1 -7 6 -7 7 0 9 -5 5 -11 -4 -8 0 -8 15 0 18 10 21
9 21 -9 0 -11 5 -20 11 -20 5 0 7 -5 3 -11 -4 -7 2 -6 17 2 21 11 22 10 12 -2
-10 -13 -8 -15 17 -13 26 2 28 0 19 -17 -5 -11 -6 -19 -2 -18 20 3 34 -2 28
-11 -3 -5 0 -7 8 -4 8 3 18 0 22 -5 3 -6 11 -8 17 -5 7 4 8 2 4 -4 -4 -7 -2
-12 4 -12 6 0 8 -5 4 -12 -4 -6 -3 -8 4 -4 6 3 13 2 17 -4 4 -6 12 -7 18 -3 7
4 5 -2 -3 -12 -10 -13 -11 -16 -2 -11 8 5 19 1 28 -10 9 -11 13 -14 10 -7 -4
6 -1 15 5 19 7 4 9 3 5 -4 -3 -6 0 -17 8 -25 8 -8 12 -18 8 -23 -4 -5 1 -2 11
5 17 13 23 6 18 -23 -1 -5 7 -6 19 -3 11 3 20 1 20 -5 0 -5 5 -6 12 -2 7 5 9
0 6 -14 -4 -14 -2 -19 7 -16 7 3 16 0 21 -7 5 -8 3 -10 -6 -4 -8 5 -11 4 -7
-3 4 -5 15 -8 25 -5 12 3 23 -4 30 -19 10 -18 11 -18 7 -3 -5 20 -5 20 10 1 8
-11 15 -23 15 -27 0 -3 12 -4 27 -1 21 4 25 2 20 -11 -4 -12 -1 -15 15 -12 11
3 18 2 15 -1 -13 -13 18 -32 36 -23 13 7 19 6 23 -6 7 -18 70 -50 96 -48 10 1
16 -2 13 -8 -4 -5 -1 -9 5 -9 6 0 8 -5 4 -12 -5 -8 -2 -9 10 -5 14 6 17 3 12
-8 -4 -11 -2 -14 7 -8 29 18 82 1 69 -22 -3 -5 -2 -7 3 -3 4 4 15 2 23 -5 13
-10 15 -9 8 3 -6 12 -4 11 6 -1 15 -18 68 -31 68 -17 0 5 6 6 13 1 6 -4 20 -8
29 -8 9 0 24 -9 33 -20 l15 -20 -6 20 c-5 19 -5 19 9 2 8 -9 24 -17 36 -17 14
0 20 -4 15 -12 -4 -6 -3 -8 4 -4 15 9 72 15 72 6 0 -4 7 -7 15 -7 8 0 15 5 15
11 0 6 5 4 10 -4 5 -8 10 -10 10 -4 0 6 7 11 15 11 8 0 15 -3 15 -7 0 -4 7 -7
15 -7 8 0 15 4 15 9 0 10 23 6 31 -6 4 -4 17 -3 29 4 15 8 20 8 16 1 -4 -6 0
-11 8 -11 9 0 16 6 16 13 0 8 4 7 10 -3 5 -8 10 -11 10 -6 0 6 7 1 15 -10 13
-18 14 -18 9 6 -5 20 -3 22 5 10 8 -12 14 -13 30 -3 16 10 22 9 34 -10 l16
-22 -6 25 c-3 14 -1 21 4 15 9 -12 23 -13 41 -2 7 5 12 3 12 -4 0 -8 4 -8 15
1 12 10 15 10 15 0 0 -9 4 -9 13 -2 8 7 18 7 27 2 9 -5 19 -5 27 2 9 7 13 7
13 -2 0 -10 4 -10 16 1 13 10 17 10 24 0 6 -11 9 -11 13 0 5 12 6 12 6 0 1
-11 4 -11 18 0 15 12 16 12 8 -1 -8 -13 -7 -13 9 -1 10 9 20 11 24 5 9 -12 35
-17 27 -5 -3 6 5 10 17 9 40 -2 49 2 42 14 -5 7 -2 9 8 5 9 -3 25 1 37 9 12 8
26 12 31 9 6 -3 10 -1 10 5 0 6 5 8 11 5 17 -11 70 -12 76 -2 3 6 1 7 -5 3 -7
-4 -12 -2 -12 5 0 6 8 9 20 6 11 -3 18 -2 15 3 -3 4 2 11 11 14 10 4 13 2 9
-7 -4 -6 1 -3 9 7 9 11 16 16 16 12 0 -5 6 -3 14 3 11 9 16 9 22 0 5 -8 17 -1
39 24 18 20 35 33 39 30 10 -11 37 -12 30 -2 -3 5 0 9 6 9 6 0 8 5 4 12 -5 8
0 7 11 -2 14 -11 17 -11 11 -1 -11 17 14 34 30 20 8 -7 14 -6 19 1 3 6 12 7
18 4 7 -4 9 -4 5 1 -12 13 42 57 63 52 12 -3 16 0 12 9 -3 8 -1 14 5 14 6 0
13 -6 15 -12 3 -8 6 -5 6 5 1 12 5 16 14 11 7 -5 6 0 -3 11 -9 11 -10 16 -2
11 7 -4 12 -2 12 6 0 8 3 9 8 3 10 -15 35 -18 26 -4 -5 9 -2 10 10 6 10 -4 15
-3 11 4 -8 12 14 41 26 33 5 -3 9 0 9 6 0 6 4 9 9 6 5 -3 12 1 15 10 3 8 10
13 15 9 5 -3 13 0 17 6 4 7 3 9 -4 5 -6 -3 -13 -2 -16 3 -3 5 7 8 23 7 16 -1
29 3 28 8 -1 6 4 10 12 8 9 -2 12 4 8 18 -4 17 0 20 25 20 23 0 29 4 24 15 -3
8 -1 15 5 15 6 0 7 5 3 12 -4 6 -3 8 4 5 15 -10 42 3 42 19 0 8 8 14 19 14 10
0 24 7 31 15 7 8 16 12 21 9 5 -3 9 0 9 6 0 6 5 8 10 5 6 -4 10 -3 9 2 -1 4 1
16 6 26 5 13 11 15 20 7 9 -8 15 -8 20 0 3 5 3 10 -1 10 -4 0 1 7 12 16 10 8
13 12 5 8 -9 -5 -12 -3 -7 4 4 7 16 12 27 12 10 0 19 5 19 10 0 6 8 10 18 10
14 0 15 2 2 10 -13 8 -13 10 1 10 9 0 19 7 23 15 3 8 12 15 21 15 8 0 15 8 16
18 0 10 3 12 6 5 3 -10 8 -9 20 2 8 8 18 13 23 10 4 -3 11 2 14 11 4 10 2 13
-7 9 -6 -4 -1 2 13 13 18 15 27 17 33 9 6 -8 7 -6 3 5 -6 21 18 48 45 48 13 0
19 7 19 21 0 11 5 17 10 14 6 -3 10 -1 10 4 0 6 6 10 13 9 6 -2 11 3 9 11 -2
9 3 11 15 7 15 -6 15 -5 -1 13 -18 20 -18 20 3 16 22 -4 81 43 81 65 0 6 5 8
12 4 8 -5 9 -2 5 10 -4 9 -3 15 2 12 5 -3 17 2 28 12 10 9 13 13 6 8 -10 -6
-12 -4 -7 8 3 9 10 16 16 16 5 0 6 6 2 13 -6 9 -5 9 7 1 11 -9 17 -9 26 1 6 7
10 15 7 18 -9 9 19 45 32 40 6 -2 15 1 20 8 5 8 3 10 -7 4 -11 -7 -12 -6 -2 7
7 8 9 18 5 23 -4 4 0 6 8 3 16 -5 40 14 44 35 3 18 30 57 39 57 4 0 5 -5 1
-12 -4 -7 -3 -8 4 -4 6 4 8 14 5 23 -5 12 -2 15 10 10 11 -4 14 -2 10 9 -3 9
1 14 13 14 16 0 17 2 4 10 -13 8 -12 10 4 10 12 0 16 5 12 15 -3 8 -1 15 5 15
6 0 7 5 3 12 -4 7 -3 8 5 4 6 -4 9 -13 5 -19 -3 -7 3 -1 14 12 11 14 18 33 16
44 -2 13 1 17 11 14 7 -3 16 1 19 9 3 9 10 13 15 10 4 -3 7 6 5 20 -2 19 1 24
13 20 9 -4 13 -1 11 6 -5 13 11 36 57 81 17 16 23 26 15 23 -8 -4 -7 -1 4 8
10 8 15 20 11 26 -4 6 -1 9 7 8 7 -2 12 2 11 9 -2 8 4 10 15 6 15 -6 16 -5 2
12 -9 11 -10 16 -3 11 8 -4 17 2 24 18 7 14 16 23 20 20 5 -3 6 3 2 12 -5 13
-3 15 7 9 10 -6 12 -3 8 13 -4 14 -1 22 6 22 7 0 21 7 32 16 10 8 13 12 5 8
-11 -5 -13 -3 -8 10 4 10 7 20 7 22 0 3 5 2 12 -2 7 -5 8 -3 3 6 -5 8 0 19 13
29 11 9 22 25 24 36 2 11 13 30 25 41 12 12 19 25 16 28 -4 3 -1 6 5 6 6 0 9
6 6 13 -2 7 3 21 12 32 8 11 12 13 8 5 -7 -12 -5 -13 8 -3 8 7 19 9 24 5 4 -4
2 1 -5 11 -10 12 -10 17 -2 17 8 0 10 8 6 19 -3 11 0 23 6 27 8 5 10 2 5 -7
-4 -8 4 0 18 16 15 18 24 37 20 47 -4 13 2 19 21 24 24 6 24 7 8 20 -17 13
-17 14 0 8 17 -6 18 -5 20 59 1 12 8 28 17 35 13 10 12 11 -5 6 -18 -5 -17 -3
4 15 13 12 19 21 14 21 -5 0 -9 9 -9 19 0 16 3 18 15 8 12 -10 14 -9 8 5 -3
10 -2 20 4 24 6 4 6 11 -2 20 -8 10 -8 14 0 14 13 0 10 22 -4 32 -6 5 -5 8 3
8 7 0 11 4 8 9 -3 5 1 12 10 15 11 4 15 15 12 36 -3 22 -1 27 8 20 15 -13 26
11 14 30 -5 8 -6 19 -2 24 3 6 7 24 7 40 1 16 7 32 13 34 7 2 10 8 6 13 -3 5
0 9 5 9 6 0 11 6 11 14 0 8 6 17 13 19 8 4 8 8 2 14 -16 13 -11 48 9 68 9 10
14 21 9 24 -12 9 -15 34 -3 26 5 -3 10 -1 10 5 0 6 5 8 13 4 8 -5 8 -2 -2 9
-11 14 -11 17 0 17 12 0 12 2 0 9 -10 7 -10 10 -1 13 9 3 13 24 13 61 -1 37 3
55 9 51 6 -4 9 -1 6 7 -3 8 2 20 11 26 13 11 14 14 2 22 -16 10 -5 35 11 25 7
-4 8 -2 4 4 -4 7 -2 12 3 12 6 0 11 7 11 15 0 8 6 15 14 15 8 0 17 6 19 13 4
8 6 8 6 0 1 -6 10 -9 22 -6 13 4 18 11 14 21 -5 13 -3 13 12 1 11 -9 14 -10 9
-1 -4 7 -1 12 8 12 8 0 20 9 26 19 6 13 18 18 30 16 11 -2 19 -1 16 3 -7 12
19 29 42 27 12 -1 23 2 23 7 1 4 3 13 4 18 1 6 3 14 4 19 0 6 10 8 21 6 11 -2
23 1 26 7 5 7 2 8 -6 3 -9 -5 -11 -4 -6 4 6 9 12 9 24 -1 10 -7 14 -9 10 -4
-8 10 19 39 38 42 19 3 46 32 40 43 -4 5 2 8 11 7 19 -3 43 15 36 27 -2 4 3 7
11 7 8 0 20 9 26 20 6 11 15 18 20 15 6 -3 7 1 4 9 -3 9 -1 17 5 17 6 1 16 3
21 4 6 1 13 3 16 4 4 0 1 8 -6 16 -10 12 -8 13 10 10 19 -4 20 -2 9 13 -7 9
-10 14 -5 10 14 -12 46 11 40 27 -4 10 -2 13 8 10 15 -6 45 21 35 31 -3 3 7
19 23 34 16 15 26 31 23 34 -4 3 -1 6 6 6 7 0 9 5 5 12 -4 6 5 22 22 36 16 13
22 21 14 16 -10 -5 -8 0 4 14 11 12 16 22 13 22 -4 0 1 8 11 18 15 16 18 16
25 2 4 -8 5 -3 2 14 -4 19 0 35 12 49 10 11 12 17 4 12 -10 -6 -12 -4 -7 4 5
7 15 10 23 6 13 -4 14 -3 3 10 -10 12 -10 15 2 15 10 0 15 9 14 22 -1 26 14
49 28 40 5 -3 6 0 3 6 -4 5 -4 18 -1 27 6 13 9 14 16 3 7 -9 8 -8 4 6 -4 10
-1 25 5 32 8 10 9 14 0 14 -6 0 -1 15 11 34 13 19 25 33 29 31 3 -2 5 11 4 30
0 19 4 35 10 35 5 0 3 5 -5 10 -9 6 -11 10 -3 10 7 0 10 7 6 17 -5 12 -2 15 8
11 11 -4 15 1 13 24 -2 21 1 26 9 19 9 -7 12 6 12 47 0 32 4 60 10 64 6 5 6 8
-2 8 -7 0 -10 7 -7 15 4 8 13 15 21 15 12 0 12 2 -1 16 -19 19 -21 31 -3 16
10 -8 13 -6 13 9 0 10 -5 19 -11 20 -5 0 1 5 15 11 16 6 20 12 12 15 -10 4 -8
9 5 20 10 8 12 12 6 8 -16 -7 -17 11 -3 20 7 4 7 12 2 18 -11 16 -8 87 5 112
6 11 10 37 9 57 -1 20 1 35 5 32 4 -2 10 0 14 6 3 5 1 10 -6 10 -10 0 -10 3
-1 12 7 7 12 17 12 22 0 6 -5 4 -10 -4 -8 -12 -9 -10 -7 7 2 12 7 26 12 30 4
5 5 2 1 -4 -4 -7 -3 -13 2 -13 5 0 9 29 7 65 -1 45 1 62 9 58 8 -5 8 -3 0 8
-5 8 -9 24 -8 37 0 12 -2 22 -7 22 -5 0 -6 7 -3 15 4 8 11 12 18 9 6 -3 4 0
-4 8 -15 12 -18 54 -5 86 4 12 3 12 -9 3 -11 -9 -14 -8 -12 6 0 10 -5 17 -13
15 -8 -2 -11 3 -8 13 4 8 2 15 -3 15 -5 0 -6 8 -3 18 6 15 4 15 -9 4 -14 -11
-16 -10 -11 7 5 20 -5 27 -32 21 -5 -1 -4 4 3 11 14 15 16 33 2 24 -6 -3 -10
2 -10 11 0 10 -3 15 -6 12 -11 -11 -40 27 -35 46 3 15 0 18 -12 13 -24 -9 -51
21 -36 39 10 12 9 13 -6 8 -13 -6 -16 -4 -10 5 5 10 2 11 -14 6 -13 -4 -21 -2
-21 5 0 7 -7 10 -15 6 -8 -3 -15 0 -15 6 0 7 -4 7 -14 -1 -10 -9 -16 -8 -26 4
-7 8 -16 13 -20 10 -4 -3 -11 2 -14 11 -4 11 -10 13 -19 7 -13 -10 -115 -8
-125 2 -11 11 -10 35 1 35 8 0 8 3 2 8 -14 10 -17 32 -4 32 8 0 8 4 0 14 -9
10 -9 16 -1 21 8 5 8 11 -1 21 -6 7 -8 21 -5 30 6 15 4 15 -10 3 -16 -13 -16
-12 -4 10 11 22 10 23 -5 17 -15 -5 -16 -4 -5 9 10 13 9 15 -9 15 -11 0 -20 6
-19 13 2 6 -4 12 -12 12 -8 0 -21 4 -29 9 -10 6 -12 5 -7 -2 5 -8 2 -10 -9 -6
-11 5 -13 10 -5 19 5 6 6 16 2 20 -4 5 -1 5 6 1 6 -4 12 -4 13 1 0 4 1 27 3
51 1 24 8 48 16 54 12 8 12 9 -2 4 -10 -3 -20 -1 -23 5 -4 5 -1 8 7 7 8 -2 12
4 10 16 -2 12 1 16 9 10 8 -4 10 -3 5 5 -6 9 -11 9 -24 -1 -14 -12 -14 -10 -2
12 7 14 12 27 11 30 -2 3 -7 13 -12 23 -6 11 -6 17 0 17 7 0 7 8 1 24 -9 26 9
53 25 38 5 -4 5 -1 1 6 -4 7 -12 9 -18 6 -8 -5 -9 -1 -5 10 4 10 7 20 7 22 0
3 4 3 8 0 5 -3 9 1 9 9 0 8 -5 11 -11 8 -6 -4 -4 2 5 13 11 13 14 25 9 39 -14
32 -11 40 6 19 15 -18 15 -18 8 5 -4 16 -3 21 5 17 8 -5 8 0 2 16 -10 26 6 48
34 48 9 0 15 6 13 12 -5 14 15 38 32 38 8 0 8 6 0 20 -9 16 -8 18 5 14 10 -4
15 0 15 14 0 12 5 24 12 28 7 5 8 3 3 -6 -5 -9 -4 -11 4 -6 9 6 9 11 1 21 -9
11 -8 13 8 10 16 -3 20 1 17 20 -1 14 1 23 4 21 3 -2 12 2 19 10 7 8 9 14 5
14 -4 0 0 5 10 11 19 11 23 35 6 41 -6 2 -12 30 -13 63 -1 33 -5 66 -9 73 -5
7 -3 12 3 12 7 0 5 7 -4 16 -9 8 -14 20 -10 25 3 6 0 18 -8 27 -11 15 -11 15
3 5 13 -11 15 -9 11 19 -4 23 -2 29 8 23 10 -6 11 -4 4 6 -13 21 -14 40 -1 32
6 -4 8 0 4 10 -4 12 -1 17 11 17 15 0 15 2 2 10 -14 9 -7 14 13 11 4 -1 3 8
-4 20 -9 17 -8 23 2 30 12 7 11 9 0 9 -11 0 -9 4 5 15 14 11 15 14 4 15 -12 0
-13 2 -1 9 8 5 10 14 6 21 -5 9 -4 11 3 6 16 -10 42 54 30 76 -6 13 -3 23 13
39 l21 21 -24 -7 -23 -7 22 16 c14 11 20 25 19 45 -2 22 1 28 9 21 8 -7 12 -5
12 5 0 8 -7 15 -16 15 -14 1 -14 2 1 14 20 15 14 27 -10 20 -10 -3 -6 2 8 10
14 8 20 15 14 16 -7 0 -15 7 -18 16 -5 13 -3 14 7 6 10 -8 13 -6 13 8 0 10 -4
16 -8 14 -4 -3 -8 -2 -9 3 0 4 -2 18 -3 31 -2 15 2 21 9 18 15 -5 14 26 0 36
-6 5 -5 8 4 8 11 0 11 3 1 15 -10 12 -10 18 1 32 12 15 12 16 -1 8 -13 -8 -13
-7 -1 8 11 14 11 17 0 17 -11 0 -11 2 1 10 10 6 11 10 3 10 -8 0 -13 13 -13
30 0 17 -5 30 -12 30 -9 0 -9 3 0 12 10 10 8 16 -9 29 -17 12 -19 18 -9 24 9
5 11 4 6 -3 -4 -7 -3 -12 2 -12 5 0 10 12 10 26 0 15 -4 21 -8 14 -5 -7 -9 -3
-12 14 -3 16 -1 23 5 19 6 -4 7 -1 1 8 -12 19 -11 42 1 51 6 5 5 8 -4 8 -11 0
-11 3 -1 15 7 8 8 15 3 15 -13 0 -12 33 1 43 8 5 7 10 -3 16 -10 6 -10 10 -1
16 6 4 9 14 6 22 -3 8 -2 12 3 9 11 -7 17 11 17 52 -1 21 4 32 13 32 11 0 9 4
-5 15 -13 10 -14 13 -3 10 10 -4 16 0 16 9 0 8 -4 13 -9 10 -4 -3 -9 2 -9 10
-2 25 -4 30 -13 44 -6 11 0 13 29 11 31 -3 39 1 51 21 16 30 18 43 4 35 -6 -3
-7 1 -4 9 3 9 10 14 14 11 11 -7 6 22 -5 32 -4 4 -5 2 0 -6 6 -10 4 -12 -4 -6
-9 5 -10 10 -2 18 6 6 7 16 0 28 -7 13 -5 20 8 28 15 9 16 10 2 11 -16 0 -19
26 -5 48 4 6 3 12 -1 12 -5 0 -9 9 -10 20 -1 11 3 20 8 20 6 0 7 5 3 11 -11
18 -12 109 -1 109 5 0 4 6 -2 13 -6 8 -8 17 -4 20 3 4 -4 18 -16 31 -20 21
-21 25 -7 39 12 11 13 17 3 20 -9 3 -9 8 2 18 8 9 11 9 7 2 -5 -9 -2 -11 8 -7
9 3 13 11 10 16 -4 5 -7 26 -9 45 -1 19 -6 38 -11 42 -10 7 -17 27 -18 53 0 9
-4 14 -8 12 -4 -3 -8 1 -8 10 0 8 -3 22 -7 32 -4 11 -3 15 4 11 7 -5 9 0 6 12
-3 11 -11 22 -19 25 -16 6 -19 26 -3 26 5 0 7 -6 3 -12 -4 -7 -3 -9 1 -5 14
12 15 37 2 34 -7 -1 -11 4 -10 11 2 6 -2 12 -8 12 -5 0 -8 4 -4 9 3 5 -1 15
-8 23 -12 12 -14 40 -6 63 2 6 -7 22 -20 35 -13 14 -20 19 -16 11 5 -9 4 -12
-3 -7 -7 4 -12 20 -12 36 0 15 -6 31 -12 33 -10 4 -9 6 1 6 9 1 3 10 -14 25
-18 15 -26 30 -22 40 4 9 2 16 -3 16 -5 0 -7 6 -4 14 3 7 -2 21 -11 30 -9 9
-13 21 -9 28 5 8 0 7 -11 -2 -10 -8 -16 -9 -11 -3 4 7 2 21 -3 32 -8 14 -8 21
2 24 9 4 9 6 0 6 -7 1 -10 7 -7 14 2 7 -4 22 -14 33 -32 34 -44 62 -29 67 9 4
9 6 -1 6 -7 1 -11 5 -8 10 3 5 -6 16 -20 26 -18 11 -24 23 -21 36 3 10 1 16
-4 13 -5 -3 -14 8 -20 25 -6 17 -15 31 -21 31 -5 0 -6 5 -3 10 3 6 1 10 -6 10
-8 0 -8 4 1 16 8 8 9 14 4 13 -20 -6 -54 13 -54 30 0 9 -6 23 -12 30 -10 11
-10 13 0 7 6 -4 12 -2 12 3 0 6 -4 11 -9 11 -17 0 -42 32 -37 47 4 9 -2 17
-15 20 -13 4 -18 11 -14 20 4 11 1 13 -11 9 -15 -6 -15 -4 -3 11 9 11 10 14 2
9 -9 -5 -13 -1 -13 13 0 11 -5 23 -11 27 -8 4 -7 9 2 15 10 6 10 9 2 9 -6 0
-15 -5 -18 -10 -9 -15 -27 -1 -21 17 3 8 2 11 -3 8 -5 -3 -16 3 -23 13 -7 10
-22 24 -33 31 l-20 13 20 -7 c11 -4 25 -8 32 -8 6 0 9 -6 6 -14 -3 -7 2 -13
12 -13 9 0 13 4 10 10 -3 6 1 7 9 4 9 -3 16 -13 16 -21 0 -8 5 -11 10 -8 6 3
13 -1 16 -9 3 -9 15 -16 25 -16 10 0 19 -5 19 -11 0 -8 6 -7 17 2 10 9 14 9
10 2 -5 -7 1 -17 13 -23 11 -6 18 -15 15 -21 -9 -14 5 -11 21 5 11 11 11 16 1
19 -8 4 -7 6 3 7 10 0 6 6 -10 16 -18 11 -20 14 -5 10 17 -5 17 -4 -4 13 -15
11 -19 20 -12 22 8 3 6 12 -8 28 -11 13 -18 27 -15 32 3 5 -1 6 -9 3 -8 -3
-17 2 -21 11 -4 11 -2 14 7 9 6 -4 3 2 -7 15 -11 12 -25 20 -31 17 -6 -2 -12
5 -12 17 -2 22 -23 50 -23 29 0 -6 -7 -9 -15 -6 -8 4 -13 10 -10 14 3 4 -3 11
-12 14 -15 6 -15 8 -3 17 11 7 8 8 -12 5 -20 -3 -27 0 -32 16 -4 18 -7 19 -21
8 -13 -11 -15 -10 -9 3 3 10 -2 20 -15 27 -12 6 -21 7 -21 3 0 -4 -5 0 -11 10
-6 9 -14 15 -20 12 -5 -3 -6 0 -3 8 3 8 1 18 -5 22 -6 3 -11 1 -11 -4 0 -7 -7
-7 -20 1 -11 7 -20 16 -20 21 0 4 6 5 13 1 9 -6 9 -5 0 7 -6 8 -24 16 -39 17
-16 1 -33 7 -39 14 -7 8 -6 9 4 3 9 -5 7 2 -5 17 -10 14 -22 24 -26 21 -5 -2
-8 1 -8 7 0 6 -4 9 -8 6 -4 -2 -14 9 -21 25 -7 16 -18 29 -25 29 -13 0 -46 35
-46 50 0 6 -9 10 -21 10 -11 0 -17 5 -14 10 3 6 1 10 -5 10 -7 0 -9 7 -6 16 3
8 2 13 -3 9 -13 -7 -42 5 -35 16 3 5 -3 6 -12 2 -12 -4 -15 -3 -10 5 6 11 -5
17 -26 13 -5 0 -8 8 -8 19 0 12 -7 20 -16 20 -20 0 -45 25 -36 36 4 5 -2 2
-12 -6 -11 -8 -17 -10 -13 -4 6 11 -27 46 -36 37 -3 -2 -8 5 -12 16 -3 12 -11
19 -16 16 -11 -8 -58 26 -59 42 0 6 -9 10 -20 8 -13 -2 -20 2 -20 11 0 8 -7
17 -15 20 -8 4 -13 10 -10 14 3 4 -3 7 -13 6 -9 0 -16 5 -14 12 1 6 -1 11 -5
11 -21 -3 -44 2 -39 9 2 4 -7 12 -20 19 -14 6 -24 7 -24 1 0 -5 -5 -6 -11 -3
-6 4 -8 14 -5 22 3 8 2 12 -3 8 -5 -3 -15 1 -23 8 -7 7 -23 12 -36 11 -13 -1
-29 8 -37 18 -8 12 -19 17 -27 13 -7 -3 -5 0 5 8 17 14 15 15 -21 12 -22 -1
-46 2 -54 7 -9 7 -8 8 7 4 20 -6 20 -6 1 9 -11 8 -24 15 -29 15 -4 0 -6 4 -3
9 3 4 -5 7 -17 7 -12 -1 -28 3 -36 8 -12 9 -13 8 -6 -4 4 -8 -1 -6 -12 5 -11
11 -19 23 -16 28 4 6 -16 10 -60 10 -11 0 -16 5 -13 13 3 9 0 11 -12 7 -9 -3
-14 -3 -10 2 12 13 -11 33 -30 28 -10 -2 -28 5 -41 16 -13 11 -28 18 -34 14
-6 -3 -7 -1 -3 5 4 7 1 12 -9 12 -10 0 -13 5 -9 13 6 9 4 9 -8 -1 -8 -7 -26
-10 -39 -8 -13 3 -28 5 -32 5 -5 1 -5 6 -1 13 5 8 2 9 -10 5 -10 -4 -24 -1
-33 8 -8 8 -19 13 -24 10 -5 -4 -9 -2 -9 3 0 5 -7 9 -15 9 -8 0 -15 -5 -15
-11 0 -7 -3 -8 -8 -1 -4 6 -16 11 -27 11 -11 0 -19 5 -17 12 1 8 -7 11 -23 8
-15 -3 -24 0 -22 7 1 6 -2 11 -8 12 -5 0 -16 4 -24 9 -10 7 -12 5 -6 -5 6 -11
5 -12 -6 -1 -15 14 -33 16 -25 3 3 -4 -6 -6 -19 -3 -14 2 -23 8 -20 12 2 3 -9
6 -25 5 -24 -1 -28 1 -18 12 9 11 6 12 -17 3 -24 -9 -26 -9 -16 4 11 13 9 15
-8 11 -12 -2 -21 0 -21 5 0 4 -18 7 -41 5 -28 -2 -39 1 -36 10 3 6 -1 12 -9
12 -8 0 -14 -4 -14 -9 0 -5 -7 -2 -16 6 -8 9 -19 14 -24 11 -4 -3 -10 1 -13 8
-3 8 -23 12 -56 11 -32 -1 -51 3 -51 10 0 6 -5 4 -10 -4 -8 -13 -10 -12 -10 3
0 10 -4 15 -10 12 -5 -3 -18 2 -29 12 -20 18 -67 23 -91 8 -9 -5 -11 -4 -6 3
4 7 2 12 -4 12 -6 0 -8 5 -5 10 4 6 3 10 -2 9 -24 -4 -53 2 -48 11 5 8 -29 15
-57 11 -4 0 -19 6 -34 13 -14 8 -33 12 -42 9 -10 -4 -13 -2 -8 5 4 7 0 13 -11
14 -32 2 -38 3 -48 9 -13 7 -73 4 -82 -4 -3 -4 -12 -2 -19 4 -8 6 -21 9 -29 5
-9 -3 -15 0 -15 8 0 15 -24 16 -37 1 -4 -4 -3 -5 4 -1 6 3 14 2 17 -3 4 -5 -1
-8 -10 -7 -8 1 -19 9 -24 16 -7 11 -11 11 -23 1 -11 -9 -17 -9 -22 -1 -4 7
-15 10 -25 7 -11 -3 -29 2 -41 11 -20 14 -22 14 -17 0 5 -11 1 -14 -18 -10
-17 3 -22 8 -15 16 6 8 2 11 -14 11 -13 0 -21 -4 -17 -9 3 -6 -3 -6 -14 -2
-23 10 -167 11 -182 2 -6 -3 -13 -3 -16 2 -2 4 -22 7 -43 6 -23 0 -42 5 -49
14 -9 12 -13 12 -19 2 -6 -9 -4 -11 5 -5 8 5 11 4 7 -3 -8 -12 -32 -10 -44 3
-4 4 -2 5 5 1 6 -4 12 -2 12 3 0 16 -10 14 -34 -6 -17 -15 -18 -15 -8 -2 10
14 10 18 -3 23 -9 3 -14 2 -11 -3 3 -4 -19 -8 -49 -7 -41 1 -55 5 -56 16 0 9
-2 11 -5 3 -3 -7 -12 -9 -20 -6 -7 3 -11 9 -8 14 3 5 3 9 0 9 -3 0 -8 -4 -11
-10z m1276 -217 c13 -16 12 -17 -3 -4 -10 7 -18 15 -18 17 0 8 8 3 21 -13z
m-3729 -1345 c-7 -7 -12 -8 -12 -2 0 14 12 26 19 19 2 -3 -1 -11 -7 -17z
m6359 -655 c13 -16 12 -17 -3 -4 -10 7 -18 15 -18 17 0 8 8 3 21 -13z m-7184
-4033 c1 -11 -2 -18 -8 -15 -11 7 -12 35 -1 35 4 0 8 -9 9 -20z m-571 -1196
c1 -9 0 -13 -4 -10 -3 4 -7 14 -8 22 -1 9 0 13 4 10 3 -4 7 -14 8 -22z m1021
-1133 c0 -11 -5 -18 -9 -15 -4 3 -5 11 -1 19 7 21 12 19 10 -4z m368 -1059
c-3 -3 -11 0 -18 7 -9 10 -8 11 6 5 10 -3 15 -9 12 -12z m3395 -1936 c0 -2 -8
-10 -17 -17 -16 -13 -17 -12 -4 4 13 16 21 21 21 13z"/>
<path d="M9725 10020 c3 -5 8 -10 11 -10 2 0 4 5 4 10 0 6 -5 10 -11 10 -5 0
-7 -4 -4 -10z"/>
<path d="M9875 7180 c-3 -5 -1 -10 4 -10 6 0 11 5 11 10 0 6 -2 10 -4 10 -3 0
-8 -4 -11 -10z"/>
<path d="M9896 7013 c-6 -14 -5 -15 5 -6 7 7 10 15 7 18 -3 3 -9 -2 -12 -12z"/>
<path d="M2260 6980 c0 -5 5 -10 11 -10 5 0 7 5 4 10 -3 6 -8 10 -11 10 -2 0
-4 -4 -4 -10z"/>
<path d="M2591 3803 c7 -12 15 -20 18 -17 3 2 -3 12 -13 22 -17 16 -18 16 -5
-5z"/>
<path d="M8225 1650 c-3 -6 1 -7 9 -4 18 7 21 14 7 14 -6 0 -13 -4 -16 -10z"/>
</g>
</svg>
