<?xml version="1.0" standalone="no"?>
<!DOCTYPE svg PUBLIC "-//W3C//DTD SVG 20010904//EN"
 "http://www.w3.org/TR/2001/REC-SVG-20010904/DTD/svg10.dtd">
<svg version="1.0" xmlns="http://www.w3.org/2000/svg"
 width="720.000000pt" height="720.000000pt" viewBox="0 0 720.000000 720.000000"
 preserveAspectRatio="xMidYMid meet">
<metadata>
Created by potrace 1.14, written by Peter Selinger 2001-2017
</metadata>
<g transform="translate(0.000000,720.000000) scale(0.100000,-0.100000)"
fill="#000000" stroke="none">
<path d="M3459 5945 c-3 -2 -29 -8 -59 -14 -30 -5 -68 -12 -85 -15 -16 -3 -57
-11 -90 -17 -55 -10 -102 -26 -115 -39 -3 -3 -23 -11 -45 -19 -113 -38 -178
-68 -207 -95 -18 -17 -53 -47 -78 -66 -57 -44 -110 -97 -180 -180 -30 -36 -63
-74 -72 -84 -10 -11 -18 -24 -18 -28 0 -5 -8 -18 -18 -29 -21 -22 -35 -49 -48
-94 -8 -24 -15 -30 -37 -30 -15 -1 -32 -6 -39 -13 -7 -7 -19 -12 -28 -12 -8 0
-28 -11 -44 -25 -16 -14 -33 -25 -38 -25 -12 0 -118 -109 -118 -121 0 -4 -7
-14 -15 -22 -18 -18 -75 -130 -75 -147 0 -17 -42 -90 -52 -90 -4 0 -8 -5 -8
-10 0 -6 -9 -20 -19 -31 -19 -20 -44 -68 -75 -140 -25 -58 -22 -282 6 -409 10
-46 34 -96 58 -120 3 -3 11 -17 19 -32 8 -16 18 -28 23 -28 5 0 8 -30 7 -67
-1 -55 3 -76 22 -108 13 -22 28 -43 34 -47 5 -4 7 -8 3 -8 -4 0 -1 -15 6 -32
7 -18 14 -62 15 -98 2 -35 5 -68 7 -72 3 -5 0 -8 -6 -8 -20 0 -35 -24 -39 -60
-1 -19 -4 -36 -4 -36 -1 -1 -22 -4 -47 -7 -25 -3 -45 -6 -46 -6 -13 -7 -48
-47 -73 -85 -32 -46 -33 -51 -28 -120 9 -100 16 -155 26 -196 5 -19 15 -55 21
-80 6 -25 20 -64 31 -87 10 -24 19 -47 19 -53 0 -5 5 -10 10 -10 6 0 10 -9 10
-20 0 -11 4 -20 8 -20 5 0 15 -12 22 -27 15 -31 158 -173 173 -173 6 0 19 -7
29 -16 9 -9 36 -26 59 -38 47 -24 62 -48 79 -126 6 -30 15 -64 20 -75 12 -28
61 -176 67 -202 3 -13 9 -23 13 -23 4 0 13 -14 20 -30 7 -16 16 -30 21 -30 5
0 9 -9 9 -20 0 -11 5 -20 10 -20 6 0 10 -6 10 -13 0 -7 13 -28 30 -47 16 -19
29 -41 30 -47 0 -7 3 -13 8 -13 4 0 18 -17 32 -38 14 -20 41 -54 60 -75 19
-22 44 -50 55 -64 34 -44 107 -116 165 -163 30 -25 57 -47 60 -50 3 -3 21 -17
40 -30 19 -13 37 -27 40 -30 3 -3 21 -17 40 -30 19 -13 37 -27 40 -30 18 -19
160 -89 224 -111 50 -16 88 -20 215 -20 92 0 159 5 165 11 5 5 19 10 30 10 27
0 86 22 86 32 0 4 8 8 18 9 9 0 31 9 47 20 17 10 40 24 53 30 12 7 22 16 22
21 0 4 5 8 10 8 12 0 193 139 198 152 2 4 8 8 14 8 13 0 174 162 213 215 17
22 40 51 53 65 12 14 22 28 22 32 0 3 6 13 13 20 7 7 24 29 37 48 13 19 27 37
30 40 3 3 11 15 18 27 6 13 18 33 25 45 6 13 15 25 18 28 16 14 51 92 65 145
9 33 19 74 24 90 19 70 42 153 51 188 7 27 15 37 29 37 11 0 20 5 20 10 0 6 5
10 11 10 6 0 32 15 57 32 181 127 276 298 318 573 11 72 14 195 4 195 -5 0
-12 9 -15 20 -4 12 -22 36 -41 55 -26 26 -45 36 -84 41 -46 6 -50 9 -51 35 -2
50 -4 53 -24 64 -16 8 -19 16 -15 35 4 14 5 40 2 59 -4 32 15 121 28 131 3 3
20 26 38 51 31 46 31 49 17 136 -2 11 4 41 12 65 30 83 39 144 35 223 -4 85
-5 179 -2 233 1 21 7 32 17 32 12 0 14 20 12 118 -1 64 -9 142 -17 172 -8 30
-17 67 -19 83 -3 15 -9 27 -13 27 -6 0 -14 18 -18 40 0 3 -12 28 -26 56 -14
29 -26 59 -26 68 0 9 -4 16 -9 16 -5 0 -14 14 -21 30 -7 17 -16 30 -21 30 -5
0 -9 6 -9 13 0 6 -18 36 -40 65 l-41 53 45 -26 c28 -16 47 -22 51 -15 3 5 1
10 -4 10 -6 0 -11 6 -11 13 0 18 -56 76 -102 107 -21 14 -38 28 -38 33 0 4 -5
7 -11 7 -6 0 -30 19 -52 43 -48 48 -91 85 -128 109 -14 9 -32 23 -40 30 -8 8
-34 25 -59 39 -25 13 -47 27 -50 30 -3 3 -22 12 -42 20 -21 7 -38 17 -38 21 0
4 -9 8 -20 8 -11 0 -20 3 -20 8 0 13 -149 62 -375 124 -22 5 -49 14 -60 18
-54 22 -85 29 -135 34 -30 3 -73 8 -95 10 -22 3 -78 8 -124 11 -46 3 -87 7
-91 10 -4 2 -9 3 -11 0z"/>
</g>
</svg>
